<svg width="64" height="65" viewBox="0 0 64 65" fill="none" xmlns="http://www.w3.org/2000/svg">
<path d="M28.6643 7.16431C23.0275 7.16431 17.5174 8.83581 12.8306 11.9674C8.14375 15.099 4.49084 19.5501 2.33374 24.7578C0.176641 29.9655 -0.387754 35.6959 0.711925 41.2244C1.8116 46.7528 4.52597 51.8311 8.51176 55.8169C12.4976 59.8026 17.5758 62.517 23.1042 63.6167C28.6327 64.7164 34.3631 64.152 39.5708 61.9949C44.7785 59.8378 49.2296 56.1849 52.3612 51.4981C55.4928 46.8113 57.1643 41.3011 57.1643 35.6643L28.6643 35.6643L28.6643 7.16431Z" fill="#FFDC60"/>
<path d="M63.2781 29.5823C63.2781 21.9716 60.2548 14.6727 54.8732 9.2912C49.4917 3.90967 42.1928 0.886357 34.5821 0.886355L34.5822 29.5823H63.2781Z" fill="#5956E8"/>
</svg>
