<svg width="28" height="30" viewBox="0 0 28 30" fill="none" xmlns="http://www.w3.org/2000/svg">
<path d="M9.99902 2.88397C10.1004 0.949179 12.6184 0.274487 13.6736 1.89937L17.1313 7.22368C17.6032 7.95035 18.4893 8.2905 19.3262 8.06625L25.4584 6.42313C27.3299 5.92169 28.7496 8.10795 27.5304 9.61363L23.5351 14.5473C22.9898 15.2207 22.9402 16.1686 23.4121 16.8953L26.8697 22.2196C27.9249 23.8445 26.2844 25.8703 24.4756 25.176L18.5488 22.9009C17.7399 22.5904 16.823 22.8361 16.2778 23.5094L12.2825 28.4432C11.0632 29.9488 8.62957 29.0146 8.73097 27.0798L9.06323 20.74C9.10857 19.8748 8.59161 19.0787 7.7827 18.7682L1.85585 16.4931C0.0470923 15.7988 0.183524 13.1955 2.05495 12.6941L8.18715 11.051C9.02408 10.8267 9.62142 10.089 9.66677 9.22378L9.99902 2.88397Z" fill="#5956E8"/>
</svg>
