<svg width="57" height="71" viewBox="0 0 57 71" fill="none" xmlns="http://www.w3.org/2000/svg">
<path fill-rule="evenodd" clip-rule="evenodd" d="M37.6922 70.9225C55.4425 60.4157 61.468 37.55 51.1286 19.6417C40.7893 1.73352 17.9743 -4.48114 0 5.6377L0.530941 6.55731C17.9973 -3.26835 40.163 2.77229 50.2091 20.1727C60.2552 37.573 54.4037 59.7893 37.1612 70.0028L37.6922 70.9225ZM32.3827 61.7261C45.0546 54.1522 49.3402 37.7804 41.933 24.9508C34.5259 12.1212 18.2047 7.64683 5.30952 14.8341L5.84049 15.7537C18.2278 8.85964 33.8995 13.16 41.0135 25.4817C48.1274 37.8034 44.0158 53.5258 31.8517 60.8064L32.3827 61.7261ZM27.0726 52.5287C34.6663 47.8885 37.2124 38.0107 32.7375 30.2599C28.2625 22.5091 18.4351 19.7751 10.6196 24.0314L11.1507 24.9513C18.4581 20.988 27.6362 23.5478 31.8179 30.7908C35.9996 38.0338 33.6275 47.2622 26.5415 51.6089L27.0726 52.5287Z" fill="#D7E1EB"/>
</svg>
