<svg width="428" height="401" viewBox="0 0 428 401" fill="none" xmlns="http://www.w3.org/2000/svg">
<circle cx="269.987" cy="208.192" r="269.76" fill="white"/>
<path d="M210.978 330.792L175.774 343.438M210.978 330.792L210.978 51.8268M210.978 330.792L251.386 336.674M210.978 330.792L360.978 280.998M360.978 85.2944L325.366 77.3487M360.978 85.2944L360.978 137.332M360.978 85.2944L86.0035 168.759M210.978 51.8268L170.978 62.3055M210.978 51.8268L251.386 60.8426M140.57 356.084L92.815 373.238L91.0815 321.2M140.57 356.084L130.978 72.7842M140.57 356.084L175.774 343.438M130.978 72.7842L83.2231 85.2944L84.6133 127.027M130.978 72.7842L170.978 62.3055M170.978 62.3055L175.774 343.438M251.386 60.8426L251.386 336.674M251.386 60.8426L289.754 69.403M251.386 336.674L289.754 342.259M289.754 342.259L289.754 69.403M289.754 342.259L325.366 347.443M289.754 342.259L360.978 316.813M289.754 69.403L325.366 77.3487M289.754 69.403L84.6133 127.027M325.366 77.3487L325.366 347.443M325.366 347.443L360.978 352.627L360.978 316.813M91.0815 321.2L360.978 232.429M91.0815 321.2L89.6268 277.529M360.978 232.429L360.978 183.657M360.978 232.429L360.978 280.998M89.6268 277.529L360.978 183.657M89.6268 277.529L87.8457 224.063M360.978 183.657L360.978 137.332M87.8457 224.063L360.978 137.332M87.8457 224.063L86.0035 168.759M86.0035 168.759L84.6133 127.027M360.978 280.998L360.978 316.813" stroke="url(#paint0_linear_1_179)" stroke-width="2"/>
<defs>
<linearGradient id="paint0_linear_1_179" x1="347.375" y1="104.025" x2="247.725" y2="231.83" gradientUnits="userSpaceOnUse">
<stop stop-color="#CFDEEC"/>
<stop offset="1" stop-color="#B0C2D5" stop-opacity="0"/>
</linearGradient>
</defs>
</svg>
